<?xml version="1.0" encoding="UTF-8" standalone="no"?>
<svg
   xmlns:dc="http://purl.org/dc/elements/1.1/"
   xmlns:cc="http://creativecommons.org/ns#"
   xmlns:rdf="http://www.w3.org/1999/02/22-rdf-syntax-ns#"
   xmlns:svg="http://www.w3.org/2000/svg"
   xmlns="http://www.w3.org/2000/svg"
   viewBox="0 0 429.33334 512"
   height="512"
   width="429.33334"
   xml:space="preserve"
   id="svg2"
   version="1.1"><metadata
     id="metadata8"><rdf:RDF><cc:Work
         rdf:about=""><dc:format>image/svg+xml</dc:format><dc:type
           rdf:resource="http://purl.org/dc/dcmitype/StillImage" /></cc:Work></rdf:RDF></metadata><defs
     id="defs6" /><g
     transform="matrix(1.3333333,0,0,-1.3333333,0,512)"
     id="g10"><g
       transform="scale(0.1)"
       id="g12"><path
         id="path14"
         style="fill:#000000;fill-opacity:1;fill-rule:nonzero;stroke:none"
         d="m 2619.61,3600 c -57.89,0 -105,47.11 -105,105 0,74.45 -60.59,135 -135,135 -74.45,0 -135,-60.55 -135,-135 0,-57.89 -47.11,-105 -105,-105 -74.45,0 -135,-60.55 -135,-135 0,-74.45 60.55,-135 135,-135 57.89,0 105,-47.11 105,-105 0,-74.45 60.55,-135 135,-135 74.41,0 135,60.55 135,135 0,57.89 47.11,105 105,105 74.41,0 135,60.55 135,135 0,74.45 -60.59,135 -135,135 z m -240,-288.79 c -25.7,71.37 -82.42,128.09 -153.79,153.79 71.37,25.7 128.09,82.42 153.79,153.79 25.7,-71.37 82.38,-128.09 153.75,-153.79 -71.37,-25.7 -128.05,-82.42 -153.75,-153.79 z" /><path
         id="path16"
         style="fill:#000000;fill-opacity:1;fill-rule:nonzero;stroke:none"
         d="m 3078.48,2954.73 c -57.89,0 -105,47.11 -105,105 0,74.45 -60.55,135 -135,135 -74.42,0 -135,-60.55 -135,-135 0,-57.89 -47.11,-105 -105,-105 -74.42,0 -135,-60.55 -135,-135 0,-74.42 60.58,-135 135,-135 57.89,0 105,-47.07 105,-105 0,-74.42 60.58,-135 135,-135 74.45,0 135,60.58 135,135 0,57.93 47.11,105 105,105 74.45,0 135,60.58 135,135 0,74.45 -60.55,135 -135,135 z m -240,-288.79 c -25.71,71.4 -82.39,128.08 -153.79,153.79 71.4,25.74 128.08,82.42 153.79,153.79 25.7,-71.37 82.42,-128.05 153.79,-153.79 -71.37,-25.71 -128.05,-82.39 -153.79,-153.79 z" /><path
         id="path18"
         style="fill:#000000;fill-opacity:1;fill-rule:nonzero;stroke:none"
         d="m 1543.2,2863.98 -306.99,54.22 c -29.06,5.12 -58.48,-7.26 -75.08,-31.68 L 1039.69,2707.89 C 937.539,2557.58 784.262,2450.35 608.051,2405.94 c -40.199,-10.12 -64.531,-50.9 -54.422,-91.06 8.601,-34.02 39.101,-56.68 72.66,-56.68 6.09,0 12.262,0.75 18.402,2.31 211.911,53.4 396.249,182.34 519.059,363.08 l 94.14,138.48 259.22,-45.78 c 40.78,-7.19 79.69,20 86.91,60.82 7.19,40.78 -20.04,79.69 -60.82,86.87 z" /><path
         id="path20"
         style="fill:#000000;fill-opacity:1;fill-rule:nonzero;stroke:none"
         d="m 2087.46,320.469 c -0.98,4.73 -2.42,9.453 -4.3,14.019 -1.87,4.492 -4.18,8.871 -6.87,12.891 -2.77,4.141 -5.94,7.973 -9.38,11.41 -3.47,3.481 -7.3,6.602 -11.4,9.371 -4.06,2.699 -8.4,5.039 -12.89,6.922 -4.61,1.867 -9.34,3.277 -14.03,4.258 -9.68,1.949 -19.68,1.949 -29.33,0 -4.81,-0.981 -9.53,-2.391 -14.03,-4.258 -4.57,-1.883 -8.94,-4.223 -12.96,-6.922 -4.15,-2.769 -7.97,-5.89 -11.41,-9.371 -3.48,-3.437 -6.6,-7.269 -9.3,-11.41 -2.69,-4.02 -5.04,-8.399 -6.91,-12.891 -1.88,-4.566 -3.28,-9.289 -4.26,-14.019 -0.98,-4.879 -1.52,-9.848 -1.52,-14.688 0,-4.883 0.54,-9.84 1.52,-14.652 0.98,-4.758 2.38,-9.488 4.26,-14.02 1.87,-4.57 4.22,-8.91 6.91,-12.968 2.7,-4.102 5.82,-7.93 9.3,-11.411 3.44,-3.429 7.26,-6.601 11.41,-9.289 4.02,-2.703 8.39,-5 12.96,-6.882 4.5,-1.868 9.22,-3.321 14.03,-4.289 4.8,-0.981 9.72,-1.489 14.61,-1.489 4.88,0 9.84,0.508 14.72,1.489 4.69,0.968 9.42,2.421 14.03,4.289 4.49,1.882 8.83,4.179 12.89,6.882 4.1,2.688 7.93,5.86 11.4,9.289 3.44,3.481 6.61,7.309 9.38,11.411 2.69,4.058 4.92,8.398 6.8,12.968 1.87,4.493 3.39,9.262 4.37,14.02 0.98,4.812 1.41,9.769 1.41,14.652 0,4.84 -0.43,9.809 -1.41,14.688 z" /><path
         id="path22"
         style="fill:#000000;fill-opacity:1;fill-rule:nonzero;stroke:none"
         d="m 2771.64,976.371 c -16.13,14.25 -37.66,20.82 -58.98,18.16 -44.22,-5.582 -148.52,-2.543 -188.6,42.459 -21.01,23.6 -24.92,62.85 -11.72,116.76 45.63,185.82 57.86,487.03 57.86,520.9 0,425.9 -63.25,752.23 -193.29,997.62 -189.14,356.79 -516.48,537.69 -973,537.69 -456.531,0 -783.871,-180.9 -973.012,-537.69 -130.039,-245.39 -193.277,-571.72 -193.277,-997.62 0,-3.01 3.16,-315.55 53.551,-520.9 13.207,-53.79 9.34,-93.01 -11.524,-116.6 -42.66,-48.17 -153.519,-46.88 -188.7496,-42.619 -21.3671,2.66 -42.8476,-3.91 -58.9882,-18.16 C 15.7813,962.148 6.51953,941.641 6.51953,920.121 6.51953,806.52 71.6797,649.18 373.121,529.41 V 75 c 0,-41.4102 33.598,-75 75,-75 L 2355.43,0 c 41.41,0 75,33.5898 75,75 v 454.41 c 301.41,119.77 366.6,277.11 366.6,390.711 0,21.52 -9.26,42.027 -25.39,56.25 z M 2280.43,150 H 523.121 v 80.781 H 1702.5 c 41.45,0 75,33.598 75,75 0,41.41 -33.55,75 -75,75 H 523.121 c 0.039,1.02 0.039,238.239 0,239.258 0,77.543 63.129,140.621 140.668,140.621 h 496.561 c 28.09,-107.07 125.67,-186.281 241.45,-186.281 115.74,0 213.32,79.211 241.4,186.281 h 496.57 c 77.53,0 140.66,-63.078 140.66,-140.621 -0.04,-1.019 -0.04,-469.019 0,-470.039 z M 1245.94,1130.94 C 970.699,1201.76 778.48,1450 778.48,1734.61 v 235.66 c 251.29,76.49 470.5,232.66 624.96,445.63 l 58.79,-10.35 c 326.13,-57.58 562.85,-339.77 562.85,-670.94 0,-284.61 -192.23,-532.85 -467.46,-603.67 -33.13,-8.52 -56.29,-38.4 -56.29,-72.62 V 823.91 c 0,-54.89 -44.69,-99.531 -99.53,-99.531 -54.92,0 -99.57,44.641 -99.57,99.531 v 234.41 c 0,34.22 -23.17,64.1 -56.29,72.62 z M 2422.15,688.98 c -31.06,127.071 -145.86,221.68 -282.38,221.68 h -488.44 v 91.8 c 311.13,105.7 523.75,398.83 523.75,732.15 0,404.1 -288.83,748.36 -686.76,818.63 l -105.98,18.71 c -29.06,5.12 -58.47,-7.26 -75.07,-31.68 l -6.61,-9.72 c -145.62,-214.34 -364.25,-367.27 -615.5,-430.59 -33.32,-8.4 -56.68,-38.36 -56.68,-72.73 v -292.62 c 0,-333.32 212.61,-626.45 523.75,-732.15 v -91.8 H 663.789 c -136.519,0 -251.367,-94.609 -282.379,-221.68 -79.961,36.532 -165,88.602 -203.601,155.59 68.953,6.09 155.941,27.809 213.671,92.66 38.399,43.04 77.43,121.79 45.399,252.26 -45.59,185.63 -49.258,482.31 -49.258,485.16 0,400.82 57.539,704.14 175.82,927.34 163.36,308.17 438.279,457.97 840.469,457.97 402.22,0 677.14,-149.8 840.47,-457.97 118.32,-223.2 175.82,-526.52 175.82,-927.34 0,-47.15 -13.95,-323.99 -53.52,-485.16 -32.03,-130.47 6.99,-209.22 45.35,-252.26 57.77,-64.851 144.77,-86.57 213.71,-92.66 -38.63,-66.988 -123.63,-119.058 -203.59,-155.59 z" /><path
         id="path24"
         style="fill:#000000;fill-opacity:1;fill-rule:nonzero;stroke:none"
         d="m 1256.95,1858.67 c -29.29,29.3 -76.79,29.3 -106.09,0 -16.06,-16.05 -37.38,-24.88 -60.08,-24.88 -22.73,0 -44.06,8.83 -60.12,24.88 -29.29,29.3 -76.75,29.3 -106.051,0 -29.3,-29.29 -29.3,-76.76 0,-106.05 44.371,-44.42 103.361,-68.83 166.131,-68.83 62.78,0 121.8,24.41 166.21,68.83 29.3,29.29 29.26,76.76 0,106.05 z" /><path
         id="path26"
         style="fill:#000000;fill-opacity:1;fill-rule:nonzero;stroke:none"
         d="m 1878.98,1858.67 c -29.29,29.3 -76.79,29.3 -106.09,0 -16.05,-16.05 -37.38,-24.88 -60.08,-24.88 -22.73,0 -44.06,8.83 -60.11,24.88 -29.3,29.3 -76.76,29.3 -106.06,0 -29.3,-29.29 -29.3,-76.76 -0.04,-106.05 44.42,-44.42 103.4,-68.83 166.17,-68.83 62.78,0 121.8,24.41 166.21,68.83 29.26,29.29 29.26,76.76 0,106.05 z" /><path
         id="path28"
         style="fill:#000000;fill-opacity:1;fill-rule:nonzero;stroke:none"
         d="m 1567.93,1430.23 c -29.26,29.26 -76.76,29.26 -106.05,0 -33.13,-33.16 -87.08,-33.16 -120.2,0 -29.3,29.26 -76.8,29.26 -106.09,0 -29.3,-29.33 -29.26,-76.79 0,-106.09 45.82,-45.82 106.01,-68.71 166.17,-68.71 60.19,0 120.39,22.89 166.17,68.71 29.3,29.3 29.3,76.8 0,106.09 z" /></g></g></svg>