<?xml version="1.0" encoding="UTF-8" standalone="no"?>
<svg
   xmlns:dc="http://purl.org/dc/elements/1.1/"
   xmlns:cc="http://creativecommons.org/ns#"
   xmlns:rdf="http://www.w3.org/1999/02/22-rdf-syntax-ns#"
   xmlns:svg="http://www.w3.org/2000/svg"
   xmlns="http://www.w3.org/2000/svg"
   viewBox="0 0 480 481.33334"
   height="481.33334"
   width="480"
   xml:space="preserve"
   id="svg2"
   version="1.1"><metadata
     id="metadata8"><rdf:RDF><cc:Work
         rdf:about=""><dc:format>image/svg+xml</dc:format><dc:type
           rdf:resource="http://purl.org/dc/dcmitype/StillImage" /></cc:Work></rdf:RDF></metadata><defs
     id="defs6" /><g
     transform="matrix(1.3333333,0,0,-1.3333333,0,481.33333)"
     id="g10"><g
       transform="scale(0.1)"
       id="g12"><path
         id="path14"
         
         d="m 3230.78,2686.29 -199.26,66.41 -20.7,51.83 c -18.12,45.67 -62.34,75.63 -111.44,75.47 h -32.54 l -25.9,103.71 c -20,80.16 -92.03,136.37 -174.61,136.29 H 2640 v 131.05 c 82.66,29.22 132.23,113.75 117.42,200.16 -14.8,86.41 -89.72,149.57 -177.42,149.57 -87.66,0 -162.58,-63.16 -177.42,-149.57 -14.81,-86.41 34.76,-170.94 117.42,-200.16 V 3120 h -26.33 c -82.62,0.08 -154.65,-56.17 -174.61,-136.33 L 2293.16,2880 h -32.54 c -49.1,0.16 -93.32,-29.8 -111.4,-75.47 l -20.74,-51.8 -199.26,-66.44 C 1708.59,2613.01 1559.77,2406.56 1560,2174.06 V 2100 c 0.12,-99.38 80.62,-179.88 180,-180 h 180 v -94.69 c -0.08,-106.64 31.48,-210.9 90.74,-299.61 l 13.83,-20.66 c 79.65,-118.95 92.97,-270.35 35.31,-401.37 l -236.09,-539.65 109.92,-48.04 236.09,539.64 c 74.15,168.44 57,363.13 -45.42,516.06 l -13.83,20.66 c -46.1,68.95 -70.63,150.04 -70.55,232.97 v 140.51 c -0.12,160.31 30.47,319.14 90.08,467.93 L 2260.62,2760 h 638.79 l 130.47,-326.25 c 59.65,-148.79 90.24,-307.62 90.12,-467.93 v -140.51 c 0.08,-82.89 -24.45,-163.98 -70.51,-232.93 l -13.9,-20.78 C 2933.16,1418.71 2916.05,1224.06 2990.2,1055.62 L 3254.73,450.941 C 3284.69,382.699 3300.08,308.98 3300,234.488 V 0 h 120 v 234.488 c 0.12,91.063 -18.71,181.133 -55.35,264.492 l -264.53,604.69 c -57.66,131.02 -44.34,282.38 35.31,401.33 l 13.87,20.78 c 59.22,88.67 90.82,192.89 90.7,299.53 V 1920 h 180 c 99.38,0.12 179.88,80.62 180,180 v 74.06 c 0.23,232.5 -148.59,438.95 -369.22,512.23 z M 2580,3480 c 24.26,0 46.13,-14.61 55.43,-37.03 9.3,-22.42 4.14,-48.24 -13.01,-65.39 -17.15,-17.15 -42.97,-22.31 -65.39,-13.01 -22.42,9.3 -37.03,31.17 -37.03,55.43 0.04,33.12 26.88,59.96 60,60 z M 2018.67,2478.28 C 1963.12,2338.4 1930.98,2190.31 1923.52,2040 H 1740 c -33.12,0.04 -59.96,26.88 -60,60 v 74.06 c -0.16,180.82 115.59,341.41 287.19,398.44 l 102.89,34.3 z m 416.8,476.25 c 6.64,26.72 30.66,45.51 58.2,45.47 h 172.66 c 27.5,0.04 51.52,-18.71 58.2,-45.43 L 2743.16,2880 H 2416.84 Z M 3480,2100 c -0.04,-33.12 -26.88,-59.96 -60,-60 h -183.52 c -7.46,150.31 -39.64,298.4 -95.19,438.28 l -51.41,128.52 102.93,-34.3 c 171.6,-57.03 287.35,-217.62 287.19,-398.44 z" /><path
         id="path16"
         
         d="M 1560,480 H 840 v 540 h 246.05 C 1110.31,902.301 1202.3,810.309 1320,786.051 V 600 h 120 V 786.051 C 1579.57,814.77 1679.8,937.5 1680,1080 v 540 c -0.12,99.38 -80.62,179.88 -180,180 h -240 c -99.38,-0.12 -179.88,-80.62 -180,-180 H 720 v 240 H 600 V 1620 H 360 v 240 H 240 V 1620 H 180 C 80.6211,1619.88 0.121094,1539.38 0,1440 v -240 c 0.121094,-99.38 80.6211,-179.88 180,-180 V 480 C 80.6211,479.879 0.121094,399.379 0,300 V 180 C 0.121094,80.6211 80.6211,0.121094 180,0 h 1380 c 99.38,0.121094 179.88,80.6211 180,180 v 120 c -0.12,99.379 -80.62,179.879 -180,180 z m -300,1200 h 240 c 33.12,-0.04 59.96,-26.88 60,-60 v -540 c 0,-99.41 -80.59,-180 -180,-180 -99.41,0 -180,80.59 -180,180 v 540 c 0.04,33.12 26.88,59.96 60,60 z M 120,1200 v 240 c 0.039,33.12 26.879,59.96 60,60 h 900 V 1140 H 180 c -33.121,0.04 -59.961,26.88 -60,60 z M 300,1020 H 720 V 480 H 300 Z M 1620,180 c -0.04,-33.121 -26.88,-59.961 -60,-60 H 180 c -33.121,0.039 -59.961,26.879 -60,60 v 120 c 0.039,33.121 26.879,59.961 60,60 h 1380 c 33.12,-0.039 59.96,-26.879 60,-60 z" /></g></g></svg>