<?xml version="1.0" encoding="UTF-8" standalone="no"?>
<svg
   xmlns:dc="http://purl.org/dc/elements/1.1/"
   xmlns:cc="http://creativecommons.org/ns#"
   xmlns:rdf="http://www.w3.org/1999/02/22-rdf-syntax-ns#"
   xmlns:svg="http://www.w3.org/2000/svg"
   xmlns="http://www.w3.org/2000/svg"
   viewBox="0 0 512 512"
 
   xml:space="preserve"
   id="svg2"
   version="1.1"><metadata
     id="metadata8"><rdf:RDF><cc:Work
         rdf:about=""><dc:format>image/svg+xml</dc:format><dc:type
           rdf:resource="http://purl.org/dc/dcmitype/StillImage" /></cc:Work></rdf:RDF></metadata><defs
     id="defs6" /><g
     transform="matrix(1.3333333,0,0,-1.3333333,0,512)"
     id="g10"><g
       transform="scale(0.1)"
       id="g12"><path
         id="path14"
         d="m 3008.01,3583.98 c -35.31,0 -63.99,-28.59 -63.99,-63.98 v -256.02 c 0,-35.39 28.68,-63.98 63.99,-63.98 35.31,0 63.98,28.59 63.98,63.98 V 3520 c 0,35.39 -28.67,63.98 -63.98,63.98 z" /><path
         id="path16"
         d="m 896.02,3583.98 c -35.36,0 -64.032,-28.59 -64.032,-63.98 v -256.02 c 0,-35.39 28.672,-63.98 64.032,-63.98 35.308,0 63.98,28.59 63.98,63.98 V 3520 c 0,35.39 -28.672,63.98 -63.98,63.98 z" /><path
         id="path18"
         d="M 383.98,511.988 C 242.809,511.988 128.012,397.191 128.012,256.02 128.012,114.84 242.809,0 383.98,0 525.199,0 640,114.801 640,256.02 640,397.191 525.199,511.988 383.98,511.988 Z m 0,-383.976 c -70.582,0 -127.96,57.379 -127.96,128.008 0,70.582 57.378,127.96 127.96,127.96 70.629,0 128.008,-57.378 128.008,-127.96 0,-70.629 -57.379,-128.008 -128.008,-128.008 z" /><path
         id="path20"
         d="M 703.98,703.98 H 63.9805 C 28.6719,703.98 0,675.391 0,640 V 448.012 C 0,412.621 28.6719,384.02 63.9805,384.02 H 703.98 c 35.36,0 64.032,28.601 64.032,63.992 V 640 c 0,35.391 -28.672,63.98 -64.032,63.98 z M 640,511.988 H 128.012 v 64.0313 H 640 Z" /><path
         id="path22"
         d="M 511.988,3583.98 H 256.02 c -35.36,0 -64.032,-28.59 -64.032,-63.98 V 640 c 0,-35.391 28.672,-63.98 64.032,-63.98 h 255.968 c 35.313,0 63.992,28.589 63.992,63.98 v 2880 c 0.04,35.39 -28.64,63.98 -63.992,63.98 z m -63.976,-2880 H 320 v 2752.04 h 128.012 z" /><path
         id="path24"
         d="M 3456.02,511.988 C 3314.8,511.988 3200,397.191 3200,256.02 3200,114.84 3314.8,0 3456.02,0 c 141.17,0 255.97,114.801 255.97,256.02 0,141.171 -114.8,255.968 -255.97,255.968 z m 0,-383.976 c -70.63,0 -128.01,57.379 -128.01,128.008 0,70.582 57.38,127.96 128.01,127.96 70.58,0 127.96,-57.378 127.96,-127.96 0,-70.629 -57.38,-128.008 -127.96,-128.008 z" /><path
         id="path26"
         d="m 3776.02,703.98 h -640 c -35.36,0 -64.03,-28.589 -64.03,-63.98 V 448.012 c 0,-35.391 28.67,-63.992 64.03,-63.992 h 640 c 35.31,0 63.98,28.601 63.98,63.992 V 640 c 0,35.391 -28.67,63.98 -63.98,63.98 z m -64.03,-191.992 h -511.988 v 64.0313 h 511.988 z" /><path
         id="path28" 
         d="m 3583.98,3583.98 h -255.97 c -35.31,0 -63.99,-28.59 -63.99,-63.98 V 640 c 0,-35.391 28.68,-63.98 63.99,-63.98 h 255.97 c 35.36,0 64.03,28.589 64.03,63.98 v 2880 c 0,35.39 -28.67,63.98 -64.03,63.98 z M 3520,703.98 H 3391.988 V 3456.02 H 3520 Z" /><path
         id="path30" 
         d="M 3648.01,3840 H 191.988 C 86.1289,3840 0,3753.87 0,3648.01 0,3542.15 86.1289,3456.02 191.988,3456.02 H 3648.01 c 105.86,0 191.99,86.13 191.99,191.99 0,105.86 -86.13,191.99 -191.99,191.99 z m 0,-256.02 H 191.988 c -35.308,0 -63.976,28.68 -63.976,64.03 0,35.31 28.668,63.98 63.976,63.98 H 3648.01 c 35.31,0 63.98,-28.67 63.98,-63.98 0,-35.35 -28.67,-64.03 -63.98,-64.03 z" /><path
         id="path32"
         d="m 1216.02,3583.98 c -35.36,0 -64.03,-28.59 -64.03,-63.98 v -383.98 c 0,-35.4 28.67,-64.03 64.03,-64.03 35.31,0 63.98,28.63 63.98,64.03 V 3520 c 0,35.39 -28.67,63.98 -63.98,63.98 z" /><path
         id="path34" 
         d="m 1216.02,2943.98 c -344.54,0 -576.02,-128.63 -576.02,-320 v -127.96 c 0,-35.4 28.672,-64.03 63.98,-64.03 h 128.008 v -447.97 c 0,-35.43 28.672,-64.02 63.992,-64.02 h 640.04 c 35.31,0 63.98,28.59 63.98,64.02 v 447.97 h 128.01 c 35.31,0 63.98,28.63 63.98,64.03 v 127.96 c 0,191.37 -231.48,320 -575.97,320 z M 1663.98,2560 h -127.96 c -35.36,0 -64.03,-28.59 -64.03,-63.98 V 2048.01 H 960 v 448.01 c 0,35.39 -28.672,63.98 -63.98,63.98 H 768.012 v 63.98 c 0,93.05 156.988,192 448.008,192 290.97,0 447.96,-98.95 447.96,-192 z" /><path
         id="path36"
         d="m 1663.98,2943.98 c -85.31,0 -165.31,-8.04 -237.69,-23.86 -29.38,-6.45 -50.27,-32.42 -50.27,-62.54 0,-30.08 20.89,-56.06 50.27,-62.5 144.41,-31.68 237.69,-98.83 237.69,-171.1 V 2560 h -127.96 c -35.36,0 -64.03,-28.59 -64.03,-63.98 v -512.04 c 0,-35.39 28.67,-63.98 64.03,-63.98 h 447.96 c 35.36,0 64.03,28.59 64.03,63.98 v 448.01 h 128.01 c 35.31,0 63.98,28.6 63.98,63.99 v 128 c 0,191.37 -231.48,320 -576.02,320 z M 2111.99,2560 h -128.01 c -35.31,0 -63.98,-28.59 -63.98,-63.98 v -448.01 h -320 v 383.98 h 128.01 c 35.31,0 63.98,28.63 63.98,64.03 v 127.96 c 0,73.64 -35.51,139.34 -100.35,191.68 273.28,-6.05 420.35,-101.6 420.35,-191.68 z" /><path
         id="path38"
         d="m 2111.99,2943.98 c -85.31,0 -165.31,-8.04 -237.69,-23.86 -29.38,-6.45 -50.32,-32.42 -50.32,-62.54 0,-30.08 20.94,-56.06 50.32,-62.5 144.37,-31.68 237.69,-98.83 237.69,-171.1 V 2560 h -128.01 c -35.31,0 -63.98,-28.59 -63.98,-63.98 v -512.04 c 0,-35.39 28.67,-63.98 63.98,-63.98 h 448.01 c 35.31,0 63.99,28.59 63.99,63.98 v 448.01 h 128 c 35.36,0 64.03,28.6 64.03,63.99 v 128 c 0,191.37 -231.49,320 -576.02,320 z M 2560,2560 h -128.01 c -35.31,0 -63.98,-28.59 -63.98,-63.98 v -448.01 h -320 v 383.98 h 128.01 c 35.31,0 63.98,28.63 63.98,64.03 v 127.96 c 0,73.64 -35.51,139.34 -100.35,191.68 273.28,-6.05 420.35,-101.6 420.35,-191.68 z" /><path
         id="path40" 
         d="m 1216.02,3200 c -35.36,0 -64.03,-28.59 -64.03,-63.98 0,-35.4 28.67,-64.03 64.03,-64.03 35.31,0 63.98,-28.67 63.98,-63.98 0,-35.31 -28.67,-63.99 -63.98,-63.99 -35.36,0 -64.03,28.68 -64.03,63.99 0,35.39 -28.67,63.98 -63.98,63.98 -35.31,0 -63.99,-28.59 -63.99,-63.98 0,-105.86 86.14,-191.99 192,-191.99 105.86,0 191.99,86.13 191.99,191.99 0,105.86 -86.17,191.99 -191.99,191.99 z" /><path
         id="path42"
         d="m 1728.01,3583.98 c -35.35,0 -64.03,-28.59 -64.03,-63.98 v -383.98 c 0,-35.4 28.68,-64.03 64.03,-64.03 35.31,0 63.98,28.63 63.98,64.03 V 3520 c 0,35.39 -28.67,63.98 -63.98,63.98 z" /><path
         id="path44"  
         d="m 2240,3583.98 c -35.31,0 -63.98,-28.59 -63.98,-63.98 v -383.98 c 0,-35.4 28.67,-64.03 63.98,-64.03 35.31,0 63.98,28.63 63.98,64.03 V 3520 c 0,35.39 -28.67,63.98 -63.98,63.98 z" /><path
         id="path46"
         d="m 2560,2943.98 c -85.31,0 -165.31,-8.04 -237.7,-23.86 -29.37,-6.45 -50.31,-32.42 -50.31,-62.54 0,-30.08 20.94,-56.06 50.31,-62.5 144.38,-31.68 237.7,-98.83 237.7,-171.1 V 2560 h -128.01 c -35.31,0 -63.98,-28.59 -63.98,-63.98 v -512.04 c 0,-35.39 28.67,-63.98 63.98,-63.98 H 2880 c 35.31,0 63.98,28.59 63.98,63.98 v 448.01 h 128.01 c 35.35,0 64.03,28.6 64.03,63.99 v 128 c 0,191.37 -231.53,320 -576.02,320 z M 3008.01,2560 H 2880 c -35.31,0 -63.98,-28.59 -63.98,-63.98 v -448.01 h -320 v 383.98 h 127.96 c 35.36,0 64.03,28.63 64.03,64.03 v 127.96 c 0,73.64 -35.55,139.34 -100.35,191.68 273.28,-6.05 420.35,-101.6 420.35,-191.68 z" /><path
         id="path48" 
         d="m 2751.99,3583.98 c -35.31,0 -63.98,-28.59 -63.98,-63.98 v -383.98 c 0,-35.4 28.67,-64.03 63.98,-64.03 35.31,0 63.99,28.63 63.99,64.03 V 3520 c 0.04,35.39 -28.64,63.98 -63.99,63.98 z" /><path
         id="path50"
         d="M 3328.01,1216.02 H 511.988 c -35.308,0 -63.976,-28.64 -63.976,-64.03 V 896.02 c 0,-35.399 28.668,-64.032 63.976,-64.032 H 3328.01 c 35.31,0 63.98,28.633 63.98,64.032 v 255.97 c 0,35.39 -28.67,64.03 -63.98,64.03 z M 3263.98,960 H 576.02 v 128.012 h 2687.96 z" /><path
         id="path52"   
         d="M 3008.01,1471.99 H 2240 c -35.31,0 -63.98,-28.59 -63.98,-63.98 v -256.02 c 0,-35.39 28.67,-63.98 63.98,-63.98 h 768.01 c 35.31,0 63.98,28.59 63.98,63.98 v 256.02 c 0,35.39 -28.67,63.98 -63.98,63.98 z m -64.03,-255.97 h -640 v 127.961 h 640 z" /><path
         id="path54"      
         d="m 2880,1728.01 h -511.99 c -35.35,0 -64.03,-28.6 -64.03,-64.03 v -255.97 c 0,-35.39 28.68,-63.99 64.03,-63.99 H 2880 c 35.31,0 63.98,28.6 63.98,63.99 v 255.97 c 0,35.43 -28.67,64.03 -63.98,64.03 z m -63.98,-256.02 h -384.031 v 128.012 h 384.031 z" /><path
         id="path56"       
         d="M 1983.98,1471.99 H 1600 c -35.31,0 -63.98,-28.59 -63.98,-63.98 v -256.02 c 0,-35.39 28.67,-63.98 63.98,-63.98 h 383.98 c 35.36,0 64.03,28.59 64.03,63.98 v 256.02 c 0,35.39 -28.67,63.98 -64.03,63.98 z M 1920,1216.02 h -256.02 v 127.961 H 1920 Z" /><path
         id="path58"        
         d="m 1791.99,1791.99 c -35.31,0 -63.98,-28.59 -63.98,-63.98 v -320 c 0,-35.39 28.67,-64.03 63.98,-64.03 35.31,0 63.99,28.64 63.99,64.03 v 320 c 0.04,35.39 -28.64,63.98 -63.99,63.98 z" /><path
         id="path60"         
         d="m 2086.41,1715.16 c -28.25,21.09 -68.36,15.46 -89.61,-12.82 l -192,-256.01 c -21.21,-28.21 -15.5,-68.36 12.82,-89.53 11.52,-8.64 24.96,-12.82 38.32,-12.82 19.45,0 38.71,8.87 51.25,25.63 l 191.99,255.98 c 21.21,28.24 15.51,68.36 -12.77,89.57 z" /><path
         id="path62"        
         d="m 1779.22,1446.33 -192.03,256.01 c -21.17,28.28 -61.29,33.91 -89.57,12.82 -28.32,-21.21 -33.99,-61.33 -12.82,-89.57 l 192,-255.98 c 12.61,-16.76 31.79,-25.59 51.25,-25.59 13.32,0 26.83,4.14 38.36,12.78 28.28,21.17 33.98,61.32 12.81,89.53 z" /><path
         id="path64"       
         d="M 1023.98,1791.99 H 768.012 c -35.352,0 -64.032,-28.59 -64.032,-63.98 v -576.02 c 0,-35.39 28.68,-63.98 64.032,-63.98 h 255.968 c 35.36,0 64.03,28.59 64.03,63.98 v 576.02 c 0,35.39 -28.67,63.98 -64.03,63.98 z M 960,1216.02 H 831.988 v 447.961 H 960 Z" /><path
         id="path66"
         d="M 1280,1663.98 H 1024.02 C 988.672,1663.98 960,1635.39 960,1600 v -448.01 c 0,-35.39 28.672,-63.98 64.02,-63.98 H 1280 c 35.31,0 63.98,28.59 63.98,63.98 V 1600 c 0,35.39 -28.67,63.98 -63.98,63.98 z m -63.98,-447.96 h -128.008 v 320 h 128.008 z" /><path
         id="path68"
         d="m 1728.01,3200 c -35.35,0 -64.03,-28.59 -64.03,-63.98 0,-35.4 28.68,-64.03 64.03,-64.03 35.31,0 63.98,-28.67 63.98,-63.98 0,-35.31 -28.67,-63.99 -63.98,-63.99 -35.35,0 -64.03,28.68 -64.03,63.99 0,35.39 -28.67,63.98 -63.98,63.98 -35.31,0 -63.98,-28.59 -63.98,-63.98 0,-105.86 86.13,-191.99 191.99,-191.99 105.86,0 191.99,86.13 191.99,191.99 0,105.86 -86.13,191.99 -191.99,191.99 z" /><path
         id="path70"
         d="m 2240,3200 c -35.31,0 -63.98,-28.59 -63.98,-63.98 0,-35.4 28.67,-64.03 63.98,-64.03 35.31,0 63.98,-28.67 63.98,-63.98 0,-35.31 -28.67,-63.99 -63.98,-63.99 -35.31,0 -63.98,28.68 -63.98,63.99 0,35.39 -28.68,63.98 -64.03,63.98 -35.31,0 -63.98,-28.59 -63.98,-63.98 0,-105.86 86.13,-191.99 191.99,-191.99 105.86,0 191.99,86.13 191.99,191.99 0,105.86 -86.13,191.99 -191.99,191.99 z" /><path
         id="path72"
         d="m 2751.99,3200 c -35.31,0 -63.98,-28.59 -63.98,-63.98 0,-35.4 28.67,-64.03 63.98,-64.03 35.31,0 63.99,-28.67 63.99,-63.98 0,-35.31 -28.68,-63.99 -63.99,-63.99 -35.31,0 -63.98,28.68 -63.98,63.99 0,35.39 -28.67,63.98 -64.03,63.98 -35.31,0 -63.98,-28.59 -63.98,-63.98 0,-105.86 86.13,-191.99 191.99,-191.99 105.86,0 192.03,86.13 192.03,191.99 0,105.86 -86.17,191.99 -192.03,191.99 z" /></g></g></svg>