<?xml version="1.0" encoding="UTF-8" standalone="no"?>
<svg
   xmlns:dc="http://purl.org/dc/elements/1.1/"
   xmlns:cc="http://creativecommons.org/ns#"
   xmlns:rdf="http://www.w3.org/1999/02/22-rdf-syntax-ns#"
   xmlns:svg="http://www.w3.org/2000/svg"
   xmlns="http://www.w3.org/2000/svg"
   viewBox="0 0 344 512"
   height="512"
   width="344"
   xml:space="preserve"
   id="svg2"
   version="1.1"><metadata
     id="metadata8"><rdf:RDF><cc:Work
         rdf:about=""><dc:format>image/svg+xml</dc:format><dc:type
           rdf:resource="http://purl.org/dc/dcmitype/StillImage" /></cc:Work></rdf:RDF></metadata><defs
     id="defs6" /><g
     transform="matrix(1.3333333,0,0,-1.3333333,0,512)"
     id="g10"><g
       transform="scale(0.1)"
       id="g12"><path
         id="path14"
         style="fill:#000000;fill-opacity:1;fill-rule:nonzero;stroke:none"
         d="m 2324.1,1655.66 c -0.74,1.72 -1.52,3.44 -2.42,5.08 -4.18,8.75 -8.36,17.5 -12.66,26.17 -68.04,138.52 -147.61,262.11 -235.74,367.93 -2.62,4.07 -5.66,7.74 -9.18,10.98 -123.2,145.2 -262.73,255.82 -411.05,323.95 -9.77,49.29 -14.77,99.49 -14.77,149.72 0,50.67 5,101.49 14.92,151.02 l 33.09,166.29 c 6.09,30.47 -13.75,60.08 -44.22,66.13 -30.47,6.09 -60.04,-13.71 -66.09,-44.18 l -33.13,-166.25 c -11.33,-56.76 -17.07,-114.96 -17.07,-173.01 0,-34.76 2.07,-69.49 6.17,-104.02 -77.46,23.08 -156.68,34.88 -236.01,35.74 -0.43,0 -0.86,0 -1.29,0 -2.5,0.16 -4.92,0.24 -7.38,0.24 -2.43,0 -4.89,-0.08 -7.39,-0.24 -0.47,0 -0.93,0 -1.4,-0.04 -79.22,-0.82 -158.36,-12.62 -235.75,-35.66 10.98,92.07 7.31,184.88 -11.01,276.95 l -101.521,509.65 c -0.359,1.84 0.539,3.63 2.223,4.41 l 177.808,79.34 c 72.23,32.34 123.29,101.09 133.17,179.49 l 3.59,27.97 h 80.55 l 3.51,-28.01 c 10.08,-78.4 61.1,-147.15 133.29,-179.45 l 177.73,-79.34 c 1.64,-0.74 2.58,-2.54 2.27,-4.33 l -25.71,-128.95 c -6.05,-30.51 13.75,-60.15 44.22,-66.17 30.47,-6.05 60.08,13.71 66.13,44.18 l 25.67,128.95 c 10.7,53.63 -16.72,106.71 -66.72,129.06 l -177.66,79.29 c -36.6,16.41 -62.5,51.25 -67.57,90.98 l -8.4,66.17 c -1.53,11.53 -5.82,22.07 -12.19,31.02 v 158.9 c -0.04,46.53 -37.85,84.38 -84.38,84.38 H 1236.8 c -46.53,0 -84.34,-37.85 -84.34,-84.38 v -158.86 c -6.41,-8.99 -10.78,-19.53 -12.23,-31.06 l -8.43,-66.21 c -5,-39.69 -30.9,-74.53 -67.5,-90.94 l -177.78,-79.29 c -49.84,-22.31 -77.258,-75.31 -66.68,-129.03 l 101.531,-509.72 c 19.918,-100.08 19.957,-201.06 0.231,-300.67 -148.364,-68.12 -287.891,-178.75 -411.051,-323.86 -3.602,-3.32 -6.801,-7.11 -9.422,-11.25 C 413.051,1948.95 333.551,1825.43 265.512,1687.03 91.8398,1333.63 0,909.961 0,461.91 0,430.82 25.1992,405.66 56.25,405.66 h 1174.73 v -79.14 h -83.4 C 1002.34,326.52 884.219,208.398 884.219,63.1602 V 56.25 C 884.219,25.1602 909.379,0 940.469,0 h 693.591 c 31.1,0 56.25,25.1602 56.25,56.25 v 6.9102 c 0,145.2378 -118.16,263.3598 -263.4,263.3598 h -83.43 v 79.14 h 1174.84 c 31.06,0 56.25,25.16 56.25,56.25 0,434.852 -86.52,846.72 -250.47,1193.75 z M 1264.96,3727.5 h 44.6094 V 3625.82 H 1264.96 Z m 304.61,-3615 h -564.61 c 20.51,59.02 76.72,101.52 142.62,101.52 h 139.1 c 0.2,0 0.35,0 0.55,0 0.23,0 0.39,0 0.62,0 h 139.06 c 65.98,0 122.11,-42.5 142.66,-101.52 z m 414.06,405.66 h -354.92 c -0.35,93.988 -1.72,186.879 -3.98,278.172 h 348.16 c 6.09,-91.211 9.73,-184.102 10.74,-278.172 z M 601.641,796.332 h 40.738 c 31.101,0 56.25,25.148 56.25,56.25 0,31.047 -25.149,56.25 -56.25,56.25 h -31.828 c 8.629,95.078 20,188.048 34.019,278.078 h 321.25 c -5.23,-90.19 -9.492,-183.08 -12.66,-278.078 h -98.898 c -31.063,0 -56.25,-25.203 -56.25,-56.25 0,-31.102 25.187,-56.25 56.25,-56.25 h 95.539 C 947.539,705.039 946.211,612.148 945.82,518.16 H 590.898 c 1.051,94.07 4.653,186.961 10.743,278.172 z M 201.52,1186.91 H 530.898 C 517.191,1096.68 506.051,1003.79 497.621,908.832 H 145.23 c 14.18,95.038 32.969,187.928 56.29,278.078 z m 136.718,390.67 h 272.66 C 587.461,1488.95 566.949,1395.94 549.57,1299.41 H 233.281 c 29.731,96.57 64.731,189.54 104.957,278.17 z m 237.352,390.74 h 170.461 c -15,-33.48 -29.602,-68.48 -43.672,-105 -21.25,-55.16 -41.09,-113.05 -59.488,-173.24 h -249.45 c 54.528,103.08 115.739,196.37 182.149,278.24 z M 1516.21,518.16 h -457.93 c 0.39,93.91 1.8,186.801 4.1,278.172 h 449.77 c 2.34,-91.371 3.71,-184.262 4.06,-278.172 z M 1065.7,908.832 c 3.28,94.958 7.58,187.888 12.85,278.078 h 417.43 c 5.23,-90.19 9.57,-183.12 12.85,-278.078 z m 20.12,390.578 c 6.72,96.76 14.65,189.81 23.75,278.17 h 355.39 c 9.06,-88.36 17.03,-181.41 23.75,-278.17 z m -215.55,668.91 h 178.17 c -6.29,-36.41 -12.5,-75.35 -18.6,-117.11 -7.54,-51.41 -14.57,-105.27 -21.13,-161.13 H 760.738 c 14.614,45.82 30.203,90.15 46.641,132.77 20,51.95 41.019,100.47 62.891,145.47 z m 896.88,-145.47 c 16.44,-42.62 31.99,-86.95 46.68,-132.77 h -248.01 c -6.56,55.86 -13.59,109.72 -21.09,161.13 -6.14,41.76 -12.35,80.7 -18.68,117.11 h 178.17 c 21.91,-45 42.93,-93.52 62.93,-145.47 z m -604.45,145.47 h 249.14 c 9.37,-52.27 18.75,-111.37 27.89,-178.36 4.45,-32.42 8.71,-65.7 12.77,-99.88 h -330.51 c 4.1,34.18 8.36,67.46 12.81,99.88 9.15,66.99 18.52,126.09 27.9,178.36 z m 22.38,112.5 c 46.6,210.47 89.14,263.67 102.19,275.66 13.08,-11.99 55.58,-65.19 102.18,-275.66 z m 319.57,0 c -20.63,97.97 -41.95,171.95 -63.44,227.54 70.47,-46.17 138.91,-123.2 202.07,-227.54 z m -434.77,0 H 931.211 c 63.199,104.34 131.639,181.37 202.109,227.54 -21.48,-55.59 -42.81,-129.57 -63.44,-227.54 z m -73.431,-503.24 c -8.988,-88.56 -16.84,-181.53 -23.519,-278.17 H 663.828 c 18.012,96.88 39.184,189.89 63.473,278.17 z m 581.641,0 h 269.18 c 24.25,-88.28 45.43,-181.29 63.43,-278.17 h -309.14 c -6.64,96.64 -14.53,189.61 -23.47,278.17 z m 385.54,0 h 272.66 c 40.23,-88.63 75.23,-181.6 104.92,-278.17 h -316.25 c -17.38,96.53 -37.89,189.5 -61.33,278.17 z m -31.99,112.5 c -18.4,60.19 -38.24,118.08 -59.49,173.24 -14.06,36.56 -28.67,71.52 -43.71,105 h 170.51 c 66.4,-81.87 127.57,-175.12 182.14,-278.24 z m -158.79,390.74 c -38.28,70.66 -78.94,132.27 -121.64,184.38 86.09,-45.75 168.71,-107.93 246.09,-184.38 z m -971.209,0 H 677.23 c 77.418,76.45 160,138.67 246.09,184.41 -42.699,-52.11 -83.359,-113.71 -121.679,-184.41 z M 1621.41,908.832 c -3.25,94.998 -7.46,187.888 -12.7,278.078 h 321.21 c 14.06,-90.03 25.43,-183 34.1,-278.078 z m 422.22,278.078 h 329.42 c 23.28,-90.15 42.07,-183.04 56.29,-278.078 h -352.43 c -8.43,94.958 -19.57,187.848 -33.28,278.078 z M 130.621,796.332 h 358.328 c -5.98,-91.293 -9.5,-184.184 -10.551,-278.172 H 113.012 c 1.636,94.141 7.648,187 17.609,278.172 z M 2096.09,518.16 c -0.97,93.988 -4.53,186.879 -10.5,278.172 h 358.32 c 10.04,-91.172 15.97,-184.031 17.69,-278.172 z" /></g></g></svg>